PathFileType	4	(X/Y/Z)	6_2_51_p0_0-670_filt_butterworth.trc
DataRate	CameraRate	NumFrames	NumMarkers	Units	OrigDataRate	OrigDataStartFrame	OrigNumFrames
60.0	60.0	7	27	m	60.0	167	670
Frame#	Time	RHip			RKnee			RAnkle			RBigToe			RSmallToe			RHeel			LHip			LKnee			LAnkle			LBigToe			LSmallToe			LHeel			Neck			Head			Nose			RShoulder			RElbow			RWrist			RThumb			RIndex			RPinky			LShoulder			LElbow			LWrist			LThumb			LIndex			LPinky			
		X1	Y1	Z1	X2	Y2	Z2	X3	Y3	Z3	X4	Y4	Z4	X5	Y5	Z5	X6	Y6	Z6	X7	Y7	Z7	X8	Y8	Z8	X9	Y9	Z9	X10	Y10	Z10	X11	Y11	Z11	X12	Y12	Z12	X13	Y13	Z13	X14	Y14	Z14	X15	Y15	Z15	X16	Y16	Z16	X17	Y17	Z17	X18	Y18	Z18	X19	Y19	Z19	X20	Y20	Z20	X21	Y21	Z21	X22	Y22	Z22	X23	Y23	Z23	X24	Y24	Z24	X25	Y25	Z25	X26	Y26	Z26	X27	Y27	Z27	
167	2.783333333333333	0.20777860634788503	0.39228228220004624	0.6668815329584639	0.23507974471914517	0.5266833169500797	1.108852010300991	0.26078405103622077	0.5814789549441992	1.4989613185150519	0.27173337315276896	0.3556351336873587	1.494520955562075	0.3322721242319558	0.4386876006222854	1.5207153770059794	0.25236112958139423	0.6155709154278892	1.5608585553228043	0.01376568244994247	0.4066490173008395	0.6967871799518021	0.05224943003026226	0.4752686786560452	1.1004973630087795	0.1135424515676875	0.5747549899904488	1.5204429301072793	0.12045493677359354	0.36920364278888057	1.5129772227383211	0.06473721827371268	0.418650139989595	1.5230377801297106	0.12311087587338387	0.6232559591644244	1.5842886852452192	0.03925316098749587	0.4970334774291234	0.0993424876307444	0.047100186836452285	0.4121542314532645	-0.1590330438889046	0.07435046199719875	0.37442624579719197	-0.027595785822507077	0.21072590706145056	0.4790960701332341	0.15412369332630796	0.2987294227209929	0.5570228706480819	0.4374610568139195	0.2468911638064425	0.34769056803414555	0.3334328136737168	0.17020509457834956	0.2377498249578605	0.26637327593161475	0.17474554133500783	0.19795857690109572	0.2660095291064124	0.16744696954878394	0.24405818964619747	0.3318635830783095	-0.10987004635163664	0.4185350071728471	0.19068328789111555	-0.1832685414344174	0.4008384923821242	0.4411437200089458	0.03037681555154906	0.3084897152143343	0.4293399691928425	0.12857195481722317	0.3453629489074385	0.3893037580634912	0.1576498932853186	0.32110352944743903	0.40482110346537004	0.1459484846003867	0.31534457498276713	0.4808750315830003
168	2.8	0.20675737779910014	0.39699891176280483	0.6697219880003777	0.23521471782887596	0.5263124737147891	1.1094107111668363	0.2601211848935052	0.5815254458966206	1.4979759462269546	0.27176987673783776	0.35555520984947325	1.4945182453804198	0.3326418860459651	0.4391724805885734	1.5221076372872246	0.25234615000574373	0.6156014478942509	1.5608462786173927	0.013655562719190627	0.4049743639577764	0.6972938591843054	0.05220985003313534	0.4752395085929683	1.1005262826180073	0.11355106586249342	0.5747001051982107	1.5206065909022264	0.12209312444996119	0.37056850199001	1.5124497509281807	0.064745252394188	0.4187132669434918	1.5230653453122307	0.1230456060582805	0.6228107846272338	1.5872007325333986	0.03798925206437408	0.5003319800156871	0.09903827428549447	0.04790693651862264	0.4152880047288401	-0.15760442661330143	0.07782449452891364	0.3747097264660457	-0.02786037410297051	0.2105485093193777	0.48029910288648325	0.15508360304669738	0.29460613143871134	0.5602220614245709	0.44153903116796694	0.24973640213475728	0.3512442895396748	0.329859372125323	0.17991695407360458	0.23457984245591235	0.24873103393960905	0.18580126765950075	0.20359687940132834	0.24922713694266732	0.17936131769299185	0.2402398534030856	0.31172693108900346	-0.10989912043386763	0.4185847154004542	0.19064673686557373	-0.18366642606567812	0.3993310603076753	0.44153735694924595	0.02803790793622475	0.3279589768974675	0.4352178722402647	0.1312223469952333	0.3641084256540297	0.39606990562667416	0.16231301750758248	0.3352647761635014	0.4141490206678791	0.1405348870941918	0.32121479738430014	0.4837021465649072
169	2.816666666666667	0.2057515705710527	0.4007256436307922	0.6734436536583521	0.23538640583080891	0.5259324994027114	1.1090682774785214	0.25988028114175055	0.5816685581863663	1.4967206376150437	0.2717796481541557	0.3555654231061316	1.4945146388007908	0.33281829567517085	0.43947986655176297	1.5226912773184742	0.25235534791766573	0.6155454164628982	1.5608841938090638	0.013775408814256969	0.40463690814116526	0.6977410226007175	0.052181314289804534	0.4752589272959258	1.1005678158288592	0.11358165655983855	0.5747525180178858	1.5207999105859156	0.12228139525107067	0.3715653122486344	1.512981761407263	0.06467494116172615	0.4190170426545146	1.5232425844710906	0.1230232928857922	0.6224305157462374	1.5887208836275977	0.037480762483925095	0.5021290731602944	0.0984280723476952	0.04883584713041316	0.41730730007753675	-0.15719775165813402	0.08137520867842973	0.3788022896954244	-0.02816034495575983	0.2095552594824318	0.4841326680936432	0.1565190993563819	0.29106136430972707	0.5625081137359619	0.4433609017113702	0.2544306782575598	0.347689606313592	0.32228944187259545	0.18808859278533813	0.23412748561852945	0.22995983981024654	0.19775410306292474	0.2137177014599341	0.23078013815476464	0.19352660913033085	0.23418809049230688	0.29217290543626107	-0.11000158770974397	0.4187606785109502	0.19055067988628682	-0.18406627402844436	0.3964208535302931	0.4418808713646485	0.0258875078021128	0.3432170244683964	0.4399254914550416	0.1324407649314326	0.3824911508295112	0.40024036412992975	0.16549395860903293	0.34232769932138507	0.4210828025989545	0.138446211524202	0.3239352326347159	0.48385966152608656
170	2.833333333333333	0.20575841762719688	0.4024472057963797	0.6765009988865353	0.23552595905982515	0.5256136816730872	1.1086110552454056	0.2598059901003129	0.5817173926936785	1.4957494023438018	0.27177694217936715	0.3556383522216907	1.4945125427420456	0.33289365352070815	0.43973816482675315	1.5228009937555	0.2523640647660506	0.6154989247925343	1.5609169788480672	0.013903725884371075	0.4047731076951908	0.6980104485029905	0.05222100458415383	0.4753034291268685	1.1005648957918972	0.1135903746317459	0.5748644102672648	1.5208449105318154	0.12059084360376952	0.37253173896211444	1.5141459093258585	0.06455085466064453	0.4195601425688107	1.5235531028992793	0.12304036531618961	0.6222413491654323	1.5885926627775264	0.037475870103309925	0.5029157784995273	0.09812766458416898	0.050668411230435605	0.41987041478693277	-0.1572295150354357	0.08538724880779232	0.3867142755584779	-0.02806982991412673	0.20762336564890155	0.49025248898302776	0.15838128211694158	0.2901129233711947	0.5619537435431009	0.44366049490784026	0.26126264639310537	0.3409470544155852	0.31199879854545837	0.1963467837574912	0.235580009838676	0.2117377086497345	0.21184459725017146	0.2217451683735137	0.21132257372988394	0.20996889568630442	0.22176460300784345	0.2707467508269482	-0.11015250874562349	0.41896406847728784	0.1901769843039917	-0.18448161073404568	0.3926925881193367	0.44231434121541113	0.024507725314258575	0.35241509443686725	0.4428329865317614	0.13256275649503316	0.3985788773945461	0.4031981944464005	0.16810298417743819	0.3446030965552758	0.4251887824084537	0.13919391386982993	0.3278056976049063	0.48429403020826534
171	2.85	0.20715175856055779	0.4029666568424455	0.6780123786868675	0.2356044131442785	0.5254312149009939	1.108402619181906	0.2598616589032347	0.5817271682080821	1.4953499848535492	0.27177602167995407	0.3557105854874056	1.4945018879097176	0.33295783733546713	0.43999199658428334	1.522826599418985	0.25234996518046426	0.6155117312878796	1.5609755249900408	0.013504910224666166	0.4060821764812716	0.6985252478430937	0.05230608390812607	0.47535492898898535	1.1005129292181786	0.11357871452812249	0.574997703050037	1.52077200747476	0.11839575648912866	0.37437142137351054	1.5157831019146406	0.06455797101122143	0.4198670827933325	1.5236702784200336	0.12307406901316127	0.6222268565166286	1.5874777090331522	0.037601682842671076	0.503215140675402	0.09774876293982666	0.05364391320186934	0.4242949919389477	-0.1572983972478206	0.09011025986728174	0.3940996012027479	-0.027412026558591082	0.20493858686699687	0.496321326431686	0.15998930243751944	0.2927531379200381	0.555197784454542	0.4421735792302226	0.26874828742601925	0.3342780920795884	0.29917849403024815	0.2059256291454168	0.23785815581783898	0.19472600037735707	0.22740926232217923	0.22317121012126873	0.19146255239698906	0.22866759001066608	0.20236839997758369	0.24603020268350945	-0.11026506947550223	0.4190193153591205	0.18932932470099076	-0.18480627089339344	0.3898128726615871	0.4426929799444746	0.023626202285153296	0.3579516801476463	0.44376262781403863	0.13274949156390284	0.4087954027174303	0.40574233324405723	0.16984244432585363	0.34488834180223904	0.4260618351522196	0.1394110256114483	0.3370845220009907	0.4869934186833259
172	2.8666666666666667	0.20895333516515785	0.4032850961770663	0.6782451601935577	0.23563938085035122	0.5253778834351952	1.1083760320992888	0.26030780123421876	0.5819465133820437	1.495404241494685	0.271780171153845	0.3557463561609372	1.4944921537070943	0.33292925580841437	0.43987004819083836	1.5227161666300206	0.25229994344512136	0.6155859973050768	1.5610812652169515	0.012219877615190422	0.4094159392655546	0.6996584285696926	0.05237523862054363	0.47538115943442794	1.100550030192975	0.11356826100756168	0.5750999669023492	1.5206473139659735	0.11746743961028394	0.37660087972012957	1.5172087094397615	0.06507856904069617	0.4187257738477659	1.5228177548106807	0.12309328570827084	0.6224198134886999	1.586360526892941	0.03767989357839909	0.5032088112882885	0.09687623479647922	0.056868849009765896	0.4296567940429144	-0.15725960109758108	0.09503338581976428	0.397656052506858	-0.026586938330305586	0.20195869568063793	0.4996439176875342	0.1609546421529472	0.2977917945577336	0.5399853789189891	0.43729069730834974	0.2754213606897538	0.329079652790328	0.28341501191159435	0.21711706540792847	0.2397259254430426	0.1781327751747458	0.24301274571117315	0.21993913901910045	0.17132475060181052	0.24806724547924908	0.18624628542453664	0.22114380888444557	-0.11028622251471061	0.418889211233841	0.18821901843307817	-0.18497935796257808	0.3885940888516494	0.442938472959863	0.02305893047428852	0.36232974332516193	0.4432359032515013	0.13459233925818345	0.40880699160388817	0.40703620507631577	0.1703605332856743	0.3450194200653091	0.4237183315324642	0.13719122336963838	0.35163584773567985	0.49114134144190175
173	2.8833333333333333	0.20985861106839793	0.40367735158459045	0.6775619948495939	0.23565079930486751	0.5253971801836785	1.1084199893866233	0.2613962016229575	0.5825399599802786	1.4956902694079228	0.27178525605777415	0.3557440723303502	1.4944948753820493	0.3325232191116058	0.4384666211799319	1.5219502932612592	0.2522507780506896	0.6156835693200008	1.5611424315627265	0.010450816293120245	0.41389473814816446	0.7011488973919076	0.05239046559370955	0.4753593387057761	1.1009758894616266	0.11357167600407178	0.5751450913294929	1.5205133047480395	0.11818773381288741	0.37635957227128447	1.516709704252139	0.0663364765792989	0.4149031729479182	1.5202644244280274	0.12303802654298371	0.622898827337151	1.5857244420964107	0.03767319661223575	0.503014091284461	0.09576212704264563	0.05939261780155727	0.4338306633467975	-0.15712107751071963	0.09968286745986166	0.395847725534586	-0.026865748636850345	0.199549852052205	0.4990155595975456	0.1618895194047652	0.3023988751630381	0.5192773508788772	0.42909388886743777	0.28139689267272294	0.32510921522441644	0.26576887704123303	0.23020483270950784	0.24072703912192633	0.16075881684490548	0.25851853229858385	0.21929830330131714	0.15128456504280846	0.2668589222283869	0.18612742120638548	0.19920895190932628	-0.11027250001732694	0.418726853437568	0.18734874494194378	-0.18503498702856527	0.38846172579978583	0.44310796863002866	0.023444178433857116	0.36547480310404695	0.44223144491490224	0.13854095912539693	0.39904519733241517	0.40612355317071624	0.17013291389539906	0.345451248707192	0.41945971470478205	0.13392581446487034	0.3672227844738737	0.49467355073469005
